#!OML:ASF E:\Steps\Project 1\Capture day 1\Session 2\Subject.ASF
:FULLY-SPECIFIED
:DEGREES
47
root -1.31666 19.6296 20.4206 -153.256 -2.41979 178.34
lowerback -30.4972 -3.20158 -9.02351
upperback -1.65699 -1.82661 -0.513482
thorax 14.2899 -1.7031 3.49545
lowerneck -5.25665 -3.42677 0.79697
upperneck 8.405 -5.07275 2.62273
head 3.71277 -2.44038 0.473214
rclavicle 1.33186e-014 -3.10104e-014
rhumerus -35.3731 -20.344 -78.1131
rradius 25.8876
rwrist 0.562694
rhand -2.876 -56.498
rfingers 7.12502
rthumb 22.833 -85.1665
lclavicle 1.33186e-014 -3.10104e-014
lhumerus -30.0311 2.60771 81.0335
lradius 16.9295
lwrist -1.42937
lhand -20.1081 -10.9682
lfingers 7.12502
lthumb 6.23548 18.92
rfemur -23.848 6.86431 18.6138
rtibia 6.90379
rfoot -17.5351 -3.09414
rtoes -21.6701
lfemur -22.2719 -5.94549 -23.4029
ltibia 6.21722
lfoot -7.97287 -0.74193
ltoes -26.225
48
root -1.31511 19.6307 20.4288 -153.145 -2.49172 178.339
lowerback -30.542 -3.24095 -9.03917
upperback -1.68732 -1.87898 -0.49262
thorax 14.2815 -1.72934 3.50341
lowerneck -5.29151 -3.43048 0.820298
upperneck 8.57169 -5.08733 2.57012
head 3.77605 -2.4486 0.448889
rclavicle -1.33186e-014 -5.1684e-014
rhumerus -35.3101 -20.2764 -78.1664
rradius 25.8947
rwrist 0.452153
rhand -2.65921 -56.9576
rfingers 7.12502
rthumb 23.041 -85.6002
lclavicle -1.33186e-014 -5.1684e-014
lhumerus -29.96 2.68084 81.0468
lradius 17.0589
lwrist -1.32848
lhand -20.1565 -10.9962
lfingers 7.12502
lthumb 6.18869 18.8934
rfemur -24.047 6.98909 18.5773
rtibia 7.01199
rfoot -17.5737 -3.24105
rtoes -21.6163
lfemur -22.5243 -5.97335 -23.3673
ltibia 6.3847
lfoot -8.02754 -0.772909
ltoes -26.4763
49
root -1.31212 19.6317 20.4372 -153.16 -2.58324 178.3
lowerback -30.4158 -3.29318 -9.10812
upperback -1.70899 -1.93854 -0.483674
thorax 14.209 -1.75702 3.53048
lowerneck -5.25491 -3.38178 0.749019
upperneck 8.48679 -5.01797 2.65519
head 3.74322 -2.41377 0.494191
rclavicle 2.88238e-015 -3.18055e-015
rhumerus -35.2941 -20.1673 -78.2477
rradius 25.9248
rwrist 0.0971805
rhand -2.84184 -56.9404
rfingers 7.12502
rthumb 22.8657 -85.6048
lclavicle 2.88238e-015 -3.18055e-015
lhumerus -29.9495 2.61082 81.1171
lradius 17.2861
lwrist -1.13165
lhand -20.267 -10.6367
lfingers 7.12502
lthumb 6.08203 19.256
rfemur -24.0767 7.10091 18.5248
rtibia 7.07785
rfoot -17.6239 -3.43831
rtoes -21.9107
lfemur -22.634 -5.95002 -23.3945
ltibia 6.53349
lfoot -8.02898 -0.866564
ltoes -26.2792
50
root -1.31572 19.6305 20.4365 -153.28 -2.57888 178.354
lowerback -30.3583 -3.23715 -9.00044
upperback -1.6794 -1.89585 -0.499983
thorax 14.2117 -1.72848 3.47536
lowerneck -5.15891 -3.29954 0.59202
upperneck 8.22999 -4.89449 2.85273
head 3.64397 -2.3514 0.596381
rclavicle -5.26779e-015 -2.70347e-014
rhumerus -35.3405 -20.2103 -78.2174
rradius 26.0322
rwrist 0.268813
rhand -2.90944 -55.8512
rfingers 7.12502
rthumb 22.8009 -84.5236
lclavicle -5.26779e-015 -2.70347e-014
lhumerus -29.9657 2.43991 81.2249
lradius 17.5483
lwrist -1.01539
lhand -20.4417 -10.3036
lfingers 7.12502
lthumb 5.91338 19.5939
rfemur -23.9202 7.17527 18.5526
rtibia 7.0166
rfoot -17.6036 -3.46079
rtoes -21.9168
lfemur -22.4858 -6.10326 -23.3204
ltibia 6.47644
lfoot -8.05047 -0.670527
ltoes -25.923
51
root -1.31905 19.6292 20.4383 -153.292 -2.63543 178.431
lowerback -30.4017 -3.20463 -8.85091
upperback -1.6614 -1.89548 -0.49975
thorax 14.2509 -1.71935 3.39484
lowerneck -5.19802 -3.4206 0.678726
upperneck 8.50298 -5.08272 2.80067
head 3.74578 -2.44434 0.551893
rclavicle -5.96354e-015 5.32743e-014
rhumerus -35.3134 -20.0612 -78.3142
rradius 26.0933
rwrist 0.0586708
rhand -2.34459 -56.3247
rfingers 7.12502
rthumb 23.3429 -84.9293
lclavicle -5.96354e-015 5.32743e-014
lhumerus -29.87 2.39808 81.2816
lradius 17.6686
lwrist -0.903386
lhand -20.6516 -10.3556
lfingers 7.12502
lthumb 5.71069 19.5474
rfemur -23.9146 6.95898 18.6974
rtibia 7.01857
rfoot -17.6141 -3.22985
rtoes -21.5274
lfemur -22.4736 -6.16676 -23.2207
ltibia 6.44902
lfoot -8.05083 -0.639047
ltoes -25.6856
52
root -1.32021 19.6278 20.4413 -153.29 -2.67824 178.509
lowerback -30.4869 -3.21426 -8.76719
upperback -1.61983 -1.92478 -0.458327
thorax 14.3424 -1.72943 3.38054
lowerneck -5.18056 -3.36495 0.635236
upperneck 8.46373 -4.99788 2.78311
head 3.72813 -2.40409 0.558595
rclavicle 1.36167e-014 8.74653e-014
rhumerus -35.1501 -19.8464 -78.4227
rradius 26.0412
rwrist -0.204021
rhand -2.22237 -56.8569
rfingers 7.12502
rthumb 23.4601 -85.4466
lclavicle 1.36167e-014 8.74653e-014
lhumerus -29.7153 2.41651 81.3592
lradius 17.7735
lwrist -0.573894
lhand -20.7662 -10.6576
lfingers 7.12502
lthumb 5.60013 19.2484
rfemur -24.0044 6.87132 18.8324
rtibia 7.17817
rfoot -17.7094 -3.18661
rtoes -21.7774
lfemur -22.5125 -6.18034 -23.1237
ltibia 6.49912
lfoot -8.03669 -0.64057
ltoes -25.1713
53
root -1.32044 19.6265 20.4456 -153.318 -2.70499 178.522
lowerback -30.4887 -3.23733 -8.77702
upperback -1.60321 -1.95017 -0.432846
thorax 14.3673 -1.74165 3.40326
lowerneck -5.14748 -3.34401 0.652244
upperneck 8.54588 -4.96895 2.70272
head 3.74698 -2.39286 0.530564
rclavicle 1.26228e-014 -4.53229e-014
rhumerus -35.0596 -19.6592 -78.4992
rradius 26.125
rwrist -0.262671
rhand -1.88224 -57.1952
rfingers 7.12502
rthumb 23.7863 -85.7428
lclavicle 1.26228e-014 -4.53229e-014
lhumerus -29.6497 2.39159 81.4367
lradius 17.9037
lwrist -0.33226
lhand -20.911 -10.7083
lfingers 7.12502
lthumb 5.46031 19.2014
rfemur -24.043 7.04307 18.8295
rtibia 7.30259
rfoot -17.7827 -3.38653
rtoes -22.1063
lfemur -22.5444 -6.17406 -23.1225
ltibia 6.62453
lfoot -8.12916 -0.659636
ltoes -25.2903
54
root -1.32009 19.6259 20.4534 -153.302 -2.77326 178.445
lowerback -30.4222 -3.28305 -8.85744
upperback -1.64362 -1.99622 -0.437253
thorax 14.2965 -1.76595 3.4249
lowerneck -5.20526 -3.41534 0.805905
upperneck 8.93195 -5.09303 2.53446
head 3.88598 -2.45657 0.437489
rclavicle -3.08116e-015 1.19271e-014
rhumerus -35.0709 -19.5429 -78.5457
rradius 26.2117
rwrist -0.267177
rhand -1.73958 -57.0902
rfingers 7.12502
rthumb 23.9231 -85.6199
lclavicle -3.08116e-015 1.19271e-014
lhumerus -29.691 2.12018 81.5724
lradius 18.1818
lwrist 0.0450619
lhand -20.7262 -10.4934
lfingers 7.12502
lthumb 5.63866 19.4116
rfemur -24.0837 7.1057 18.7416
rtibia 7.34124
rfoot -17.8329 -3.46215
rtoes -21.8655
lfemur -22.6588 -6.12762 -23.2356
ltibia 6.80243
lfoot -8.27026 -0.798449
ltoes -25.8176
55
root -1.32239 19.6256 20.4561 -153.349 -2.84509 178.39
lowerback -30.3836 -3.29819 -8.87923
upperback -1.6326 -2.00728 -0.446865
thorax 14.2935 -1.77084 3.42297
lowerneck -5.08262 -3.24734 0.514007
upperneck 8.67323 -4.84354 2.76351
head 3.78379 -2.33434 0.580993
rclavicle -5.96354e-016 -1.66979e-014
rhumerus -35.0733 -19.4294 -78.5977
rradius 26.334
rwrist -0.321722
rhand -1.66085 -57.1307
rfingers 7.12502
rthumb 23.9986 -85.6505
lclavicle -5.96354e-016 -1.66979e-014
lhumerus -29.749 1.60227 81.8249
lradius 18.6313
lwrist 0.721915
lhand -20.3001 -10.4097
lfingers 7.12502
lthumb 6.05007 19.4839
rfemur -23.9933 7.06599 18.6752
rtibia 7.28544
rfoot -17.8502 -3.45971
rtoes -21.7227
lfemur -22.6548 -6.28978 -23.2814
ltibia 6.87882
lfoot -8.35255 -0.75387
ltoes -25.7332
56
root -1.31947 19.6264 20.4639 -153.354 -2.93311 178.355
lowerback -30.2946 -3.31604 -8.94432
upperback -1.63815 -2.01613 -0.437987
thorax 14.25 -1.77637 3.46734
lowerneck -5.03272 -3.12431 0.322436
upperneck 8.4651 -4.65715 2.89753
head 3.70794 -2.24246 0.67021
rclavicle -5.46658e-015 -3.26007e-014
rhumerus -35.0408 -19.3166 -78.6435
rradius 26.4271
rwrist -0.463557
rhand -1.61439 -57.3073
rfingers 7.12502
rthumb 24.0432 -85.8212
lclavicle -5.46658e-015 -3.26007e-014
lhumerus -29.7047 1.32798 81.9902
lradius 18.9028
lwrist 1.11161
lhand -20.1329 -10.5931
lfingers 7.12502
lthumb 6.21155 19.2959
rfemur -23.9764 6.88765 18.7204
rtibia 7.25022
rfoot -17.8172 -3.38999
rtoes -21.9228
lfemur -22.7612 -6.21372 -23.3172
ltibia 7.03004
lfoot -8.34222 -0.951842
ltoes -25.1512
57
root -1.32193 19.6261 20.468 -153.361 -2.98605 178.358
lowerback -30.263 -3.26545 -8.89327
upperback -1.64984 -1.9659 -0.489032
thorax 14.213 -1.74873 3.40613
lowerneck -5.11317 -3.28091 0.545828
upperneck 8.85355 -4.90563 2.75376
head 3.85317 -2.36477 0.567088
rclavicle -4.96962e-015 -4.21423e-014
rhumerus -35.0559 -19.3812 -78.6656
rradius 26.4639
rwrist -0.487565
rhand -1.55311 -57.4562
rfingers 7.12502
rthumb 24.102 -85.9624
lclavicle -4.96962e-015 -4.21423e-014
lhumerus -29.6813 1.07553 82.0293
lradius 19.1282
lwrist 1.42273
lhand -19.861 -10.8366
lfingers 7.12502
lthumb 6.47401 19.0444
rfemur -24.0045 6.62969 18.7501
rtibia 7.27014
rfoot -17.8067 -3.24431
rtoes -22.1861
lfemur -22.8428 -6.43664 -23.2719
ltibia 7.1504
lfoot -8.35893 -0.738439
ltoes -25.5469
